<svg width="28" height="28" viewBox="0 0 28 28" fill="none" xmlns="http://www.w3.org/2000/svg">
<g clip-path="url(#clip0_20_2150)">
<path d="M13.937 8.97573V3.9474M13.937 2.44415V1.45831M17.3495 2.8694L16.9657 4.07515M16.5754 5.23715L15.3487 9.00081M17.7818 8.33873L17.2708 8.98798M22.5499 7.38031L18.5949 10.3256M18.6159 12.2097L20.6798 11.5208M22.1912 11.0606L25.3581 9.99248M18.6159 13.9796H23.6454M25.249 13.9796H26.5423M18.6159 15.3737L19.8608 15.7366M21.0438 16.1548L24.0753 17.1949M18.4094 7.46315L21.3156 3.46265M13.937 18.823V20.3484M13.937 21.7041V26.5416M12.2623 18.823L11.1773 22.3294M10.8138 23.5684L10.4353 24.752M15.4881 18.7699L16.2143 21.056M16.5568 22.2314L17.5694 25.3872M17.2299 18.5255L20.9592 23.6821M18.5582 17.2363L20.7853 18.9816M22.1171 19.8823L23.5935 21.0256M10.4778 18.6007L9.75043 19.5195M8.90168 20.867L6.45751 24.1535M4.01335 21.0601L3.65168 21.3471M9.2266 17.1681L5.27685 20.2247M9.1006 15.3819L7.16043 16.051M5.64318 16.5305L2.55151 17.6108M9.1006 13.9796H5.7301M4.4491 13.9796H1.45776M11.6072 6.67098L12.3428 8.97515M10.4271 2.88748L11.1971 5.30715M6.74743 3.81206L10.5023 9.16006M4.11543 6.5829L5.54868 7.71923M6.77718 8.64906L9.12568 10.4271M3.65868 10.5186L6.59168 11.4712M7.89135 11.8965L9.1006 12.2856" stroke="#99302A" stroke-linecap="round" stroke-linejoin="round"/>
</g>
<defs>
<clipPath id="clip0_20_2150">
<rect width="28" height="28" fill="white"/>
</clipPath>
</defs>
</svg>
