<svg width="28" height="28" viewBox="0 0 28 28" fill="none" xmlns="http://www.w3.org/2000/svg">
<path d="M19.291 2.15851L17.4811 6.71802L23.56 12.8036L26.7439 9.61646L19.291 2.15851ZM10.5222 2.44387C5.14912 6.10651 1.39646 11.262 1.25427 18.2434C4.65857 11.6909 10.1386 5.9337 15.2116 3.49146L10.5222 2.44387ZM5.34566 3.28977L3.72894 4.90656C4.12684 5.28718 4.52355 5.66633 4.92183 6.04641C5.40784 5.4782 5.92644 4.93352 6.4702 4.41087L5.34566 3.28977ZM24.6948 3.28977L23.2798 4.70312L24.8503 6.27538C25.3376 5.8182 25.8249 5.36057 26.3115 4.90305L24.6948 3.28977ZM10.2607 8.19798C9.73411 8.67549 9.2223 9.16906 8.72601 9.67798C10.1076 10.9976 11.4891 12.3206 12.8652 13.6565L14.2973 12.2277L10.2607 8.19792V8.19798ZM18.645 9.3311L3.71871 24.235L5.32176 25.833C9.88708 20.5759 14.9335 15.6339 20.0771 10.7648L18.645 9.33094L18.645 9.3311ZM17.1001 15.0271C16.6252 15.487 16.1517 15.9484 15.6798 16.4114C18.7367 19.44 21.7592 22.5557 24.7119 25.8416L26.3218 24.2352L17.1001 15.027V15.0271Z" fill="#99302A"/>
</svg>
