<svg width="28" height="28" viewBox="0 0 28 28" fill="none" xmlns="http://www.w3.org/2000/svg">
<path d="M2.35436 23.6892C3.67153 25.5734 9.40219 27.0515 12.11 23.5259C15.0384 24.9259 19.8672 24.4919 23.8 22.2985C24.346 21.9952 24.8629 21.6102 25.1802 21.0689C25.8954 19.8497 25.9117 18.158 24.6074 15.6625C22.4315 10.2329 18.5197 5.46586 16.94 3.54903C16.6157 3.25386 14.5472 2.83386 13.2849 2.42903C12.7272 2.25753 11.69 2.14319 10.4499 3.77886C9.86069 4.55353 7.18786 6.45869 10.5782 7.73853C11.1044 7.87269 11.4905 8.11886 13.888 7.68136C14.1995 7.62769 14.9789 7.68136 15.5284 8.64503L16.6764 10.2865C16.7837 10.4386 16.8515 10.615 16.8735 10.7999C17.0742 12.5487 17.0672 14.7374 18.0425 15.8469C16.5375 14.7572 12.6012 13.4645 9.63553 17.1442M2.33569 15.0967C3.67075 13.9067 5.3728 13.2095 7.159 13.1208C8.94519 13.032 10.708 13.5572 12.1544 14.609" stroke="#99302A" stroke-width="1.75" stroke-linecap="round" stroke-linejoin="round"/>
</svg>
