<svg width="28" height="28" viewBox="0 0 28 28" fill="none" xmlns="http://www.w3.org/2000/svg">
<path d="M16.3334 4.08331H11.6667C7.26721 4.08331 5.06687 4.08331 3.70071 5.45065C2.33454 6.81798 2.33337 9.01715 2.33337 13.4166V14.5833C2.33337 18.9828 2.33337 21.1831 3.70071 22.5493C5.06804 23.9155 7.26721 23.9166 11.6667 23.9166H16.3334C20.7329 23.9166 22.9332 23.9166 24.2994 22.5493C25.6655 21.182 25.6667 18.9828 25.6667 14.5833V13.4166C25.6667 9.01715 25.6667 6.81681 24.2994 5.45065C22.932 4.08448 20.7329 4.08331 16.3334 4.08331Z" stroke="#99302A" stroke-width="1.75" stroke-linejoin="round"/>
<path d="M5.83337 18.6666C7.04204 15.6555 11.5454 15.4583 12.8334 18.6666" stroke="#99302A" stroke-width="1.75" stroke-linecap="round"/>
<path d="M11.3751 11.375C11.3751 11.9165 11.16 12.4358 10.7771 12.8187C10.3942 13.2015 9.8749 13.4166 9.33341 13.4166C8.79193 13.4166 8.27263 13.2015 7.88974 12.8187C7.50685 12.4358 7.29175 11.9165 7.29175 11.375C7.29175 10.8335 7.50685 10.3142 7.88974 9.9313C8.27263 9.54842 8.79193 9.33331 9.33341 9.33331C9.8749 9.33331 10.3942 9.54842 10.7771 9.9313C11.16 10.3142 11.3751 10.8335 11.3751 11.375Z" stroke="#99302A" stroke-width="1.75"/>
<path d="M16.3334 9.91663H22.1667M16.3334 14H22.1667M16.3334 18.0833H19.25" stroke="#99302A" stroke-width="1.75" stroke-linecap="round" stroke-linejoin="round"/>
</svg>
